<svg xmlns="http://www.w3.org/2000/svg" width="22.776" height="23.869" viewBox="0 0 22.776 23.869">
  <path id="Tracé_1" data-name="Tracé 1" d="M427.458,206.773l-18.514-10.4a2.376,2.376,0,0,0-3.454,2.7l.571,2.067a.9.9,0,0,0,.872.664h3.006a.606.606,0,0,1,.614.533.586.586,0,0,1-.583.638H406.8a.175.175,0,0,0-.169.221h0a.175.175,0,0,0,.169.128h7.845a.606.606,0,0,1,.614.533.586.586,0,0,1-.583.638h-7.32a.278.278,0,0,0-.268.352l0,.007a11.738,11.738,0,0,1,.28,1.3.469.469,0,0,0,.464.394H412.8a.606.606,0,0,1,.614.533.586.586,0,0,1-.583.638h-4.908a.416.416,0,0,0-.416.41v.009a.417.417,0,0,0,.417.422h6.716a.606.606,0,0,1,.614.533.586.586,0,0,1-.583.638h-7.061a.27.27,0,0,0-.266.225v.006a.266.266,0,0,0,.262.31h2.333a.606.606,0,0,1,.614.533.586.586,0,0,1-.583.638h-2.882a.116.116,0,0,0-.112.085h0a.116.116,0,0,0,.112.147h5a.606.606,0,0,1,.614.533.586.586,0,0,1-.583.638h-5.185a.425.425,0,0,0-.41.312h0a.425.425,0,0,0,.41.538h1.841a.606.606,0,0,1,.614.533.586.586,0,0,1-.583.638h-2.227a.692.692,0,0,0-.667.508l-.423,1.532a2.376,2.376,0,0,0,3.454,2.7l18.514-10.4A1.407,1.407,0,0,0,427.458,206.773Z" transform="translate(-405.4 -196.065)" fill="#5df2ec"/>
</svg>
