<svg xmlns="http://www.w3.org/2000/svg" width="791.169" height="582.916" viewBox="0 0 791.169 582.916">
  <g id="undraw_researching_22gp" transform="translate(0 -0.001)">
    <rect id="Rectangle_11" data-name="Rectangle 11" width="332.557" height="9.755" transform="translate(458.611 215.846)" fill="#e6e6e6"/>
    <rect id="Rectangle_12" data-name="Rectangle 12" width="84.248" height="84.248" transform="translate(486.103 134.258)" fill="#e6e6e6"/>
    <rect id="Rectangle_13" data-name="Rectangle 13" width="50.549" height="50.549" transform="translate(502.952 151.108)" fill="#ccc"/>
    <rect id="Rectangle_14" data-name="Rectangle 14" width="21.284" height="84.248" transform="translate(674.995 134.258)" fill="#e6e6e6"/>
    <rect id="Rectangle_15" data-name="Rectangle 15" width="21.284" height="9.755" transform="translate(674.995 147.56)" fill="#ccc"/>
    <rect id="Rectangle_16" data-name="Rectangle 16" width="21.284" height="9.755" transform="translate(674.995 190.128)" fill="#ccc"/>
    <rect id="Rectangle_17" data-name="Rectangle 17" width="21.284" height="84.248" transform="translate(642.183 134.258)" fill="#e6e6e6"/>
    <rect id="Rectangle_18" data-name="Rectangle 18" width="21.284" height="9.755" transform="translate(642.183 147.56)" fill="#ccc"/>
    <rect id="Rectangle_19" data-name="Rectangle 19" width="21.284" height="9.755" transform="translate(642.183 190.128)" fill="#ccc"/>
    <rect id="Rectangle_20" data-name="Rectangle 20" width="21.284" height="84.248" transform="matrix(0.896, -0.444, 0.444, 0.896, 695.543, 143.354)" fill="#e6e6e6"/>
    <rect id="Rectangle_21" data-name="Rectangle 21" width="21.284" height="9.755" transform="matrix(0.896, -0.444, 0.444, 0.896, 701.445, 155.275)" fill="#ccc"/>
    <rect id="Rectangle_22" data-name="Rectangle 22" width="21.284" height="9.755" transform="matrix(0.896, -0.444, 0.444, 0.896, 720.332, 193.423)" fill="#ccc"/>
    <path id="Tracé_94" data-name="Tracé 94" d="M524.394,170.382l10.719,18.564,10.718,18.564H502.958l10.718-18.564Z" transform="translate(-6.809 -2.307)" fill="#e6e6e6"/>
    <path id="Tracé_95" data-name="Tracé 95" d="M543.273,173.978l10.718,18.564,10.719,18.564H521.837l10.718-18.564Z" transform="translate(-7.065 -2.355)" fill="#e6e6e6"/>
    <circle id="Ellipse_17" data-name="Ellipse 17" cx="6.208" cy="6.208" r="6.208" transform="translate(537.538 153.768)" fill="#e6e6e6"/>
    <rect id="Rectangle_23" data-name="Rectangle 23" width="332.557" height="9.755" transform="translate(791.169 91.691) rotate(180)" fill="#e6e6e6"/>
    <rect id="Rectangle_24" data-name="Rectangle 24" width="84.248" height="84.248" transform="translate(763.677 84.596) rotate(180)" fill="#e6e6e6"/>
    <rect id="Rectangle_25" data-name="Rectangle 25" width="50.549" height="50.549" transform="translate(746.828 67.747) rotate(180)" fill="#ccc"/>
    <rect id="Rectangle_26" data-name="Rectangle 26" width="21.284" height="84.248" transform="translate(574.785 84.596) rotate(180)" fill="#e6e6e6"/>
    <rect id="Rectangle_27" data-name="Rectangle 27" width="21.284" height="9.755" transform="translate(574.785 23.406) rotate(180)" fill="#ccc"/>
    <rect id="Rectangle_28" data-name="Rectangle 28" width="21.284" height="9.755" transform="translate(574.785 65.973) rotate(180)" fill="#ccc"/>
    <rect id="Rectangle_29" data-name="Rectangle 29" width="21.284" height="84.248" transform="translate(607.597 84.596) rotate(180)" fill="#e6e6e6"/>
    <rect id="Rectangle_30" data-name="Rectangle 30" width="21.284" height="9.755" transform="translate(607.597 23.406) rotate(180)" fill="#ccc"/>
    <rect id="Rectangle_31" data-name="Rectangle 31" width="21.284" height="9.755" transform="translate(607.597 65.973) rotate(180)" fill="#ccc"/>
    <rect id="Rectangle_32" data-name="Rectangle 32" width="21.284" height="84.248" transform="matrix(-0.896, -0.444, 0.444, -0.896, 516.857, 84.945)" fill="#e6e6e6"/>
    <rect id="Rectangle_33" data-name="Rectangle 33" width="21.284" height="9.755" transform="matrix(-0.896, -0.444, 0.444, -0.896, 544.006, 30.107)" fill="#ccc"/>
    <rect id="Rectangle_34" data-name="Rectangle 34" width="21.284" height="9.755" transform="matrix(-0.896, -0.444, 0.444, -0.896, 525.12, 68.255)" fill="#ccc"/>
    <path id="Tracé_96" data-name="Tracé 96" d="M741.95,34.634,731.232,53.2,720.514,71.762h42.873L752.668,53.2Z" transform="translate(-9.755 -0.469)" fill="#e6e6e6"/>
    <path id="Tracé_97" data-name="Tracé 97" d="M723.071,38.23,712.353,56.794,701.635,75.358h42.873L733.79,56.794Z" transform="translate(-9.499 -0.518)" fill="#e6e6e6"/>
    <circle id="Ellipse_18" data-name="Ellipse 18" cx="6.208" cy="6.208" r="6.208" transform="translate(699.826 19.858)" fill="#e6e6e6"/>
    <rect id="Rectangle_35" data-name="Rectangle 35" width="332.557" height="9.755" transform="translate(791.169 359.51) rotate(180)" fill="#e6e6e6"/>
    <rect id="Rectangle_36" data-name="Rectangle 36" width="84.248" height="84.248" transform="translate(763.677 352.416) rotate(180)" fill="#e6e6e6"/>
    <rect id="Rectangle_37" data-name="Rectangle 37" width="50.549" height="50.549" transform="translate(746.828 335.566) rotate(180)" fill="#ccc"/>
    <rect id="Rectangle_38" data-name="Rectangle 38" width="21.284" height="84.248" transform="translate(574.785 352.416) rotate(180)" fill="#e6e6e6"/>
    <rect id="Rectangle_39" data-name="Rectangle 39" width="21.284" height="9.755" transform="translate(574.785 291.225) rotate(180)" fill="#ccc"/>
    <rect id="Rectangle_40" data-name="Rectangle 40" width="21.284" height="9.755" transform="translate(574.785 333.793) rotate(180)" fill="#ccc"/>
    <rect id="Rectangle_41" data-name="Rectangle 41" width="21.284" height="84.248" transform="translate(607.597 352.416) rotate(180)" fill="#e6e6e6"/>
    <rect id="Rectangle_42" data-name="Rectangle 42" width="21.284" height="9.755" transform="translate(607.597 291.225) rotate(180)" fill="#ccc"/>
    <rect id="Rectangle_43" data-name="Rectangle 43" width="21.284" height="9.755" transform="translate(607.597 333.793) rotate(180)" fill="#ccc"/>
    <rect id="Rectangle_44" data-name="Rectangle 44" width="21.284" height="84.248" transform="matrix(-0.896, -0.444, 0.444, -0.896, 516.856, 352.765)" fill="#e6e6e6"/>
    <rect id="Rectangle_45" data-name="Rectangle 45" width="21.284" height="9.755" transform="matrix(-0.896, -0.444, 0.444, -0.896, 544.006, 297.927)" fill="#ccc"/>
    <rect id="Rectangle_46" data-name="Rectangle 46" width="21.284" height="9.755" transform="matrix(-0.896, -0.444, 0.444, -0.896, 525.119, 336.075)" fill="#ccc"/>
    <path id="Tracé_98" data-name="Tracé 98" d="M741.95,306.129l-10.718,18.564-10.718,18.565h42.873l-10.719-18.565Z" transform="translate(-9.755 -4.144)" fill="#e6e6e6"/>
    <path id="Tracé_99" data-name="Tracé 99" d="M723.071,309.725l-10.718,18.564-10.718,18.565h42.873L733.79,328.289Z" transform="translate(-9.499 -4.193)" fill="#e6e6e6"/>
    <circle id="Ellipse_19" data-name="Ellipse 19" cx="6.208" cy="6.208" r="6.208" transform="translate(699.826 287.678)" fill="#e6e6e6"/>
    <ellipse id="Ellipse_20" data-name="Ellipse 20" cx="391.753" cy="27.823" rx="391.753" ry="27.823" transform="translate(0 527.27)" fill="#e6e6e6"/>
    <path id="Tracé_100" data-name="Tracé 100" d="M903.532,731.887c-63.878-11.369-133.732-9.479-207.006,0,33.4-28.194,62.221-56.389,28.824-84.583,65.145,13.44,74.27,12.079,146.738,0C855.28,675.5,886.724,703.693,903.532,731.887Z" transform="translate(-205.722 -161.213)" fill="#e56a6a"/>
    <path id="Tracé_101" data-name="Tracé 101" d="M903.532,731.887c-63.878-11.369-133.732-9.479-207.006,0,33.4-28.194,62.221-56.389,28.824-84.583,65.145,13.44,74.27,12.079,146.738,0C855.28,675.5,886.724,703.693,903.532,731.887Z" transform="translate(-205.722 -161.213)" opacity="0.2"/>
    <path id="Tracé_102" data-name="Tracé 102" d="M888.165,719.928c-54.262-9.075-113.6-7.567-175.844,0,28.37-22.505,52.854-45.011,24.485-67.516,55.339,10.728,63.089,9.642,124.649,0C847.176,674.917,873.887,697.422,888.165,719.928Z" transform="translate(-205.936 -161.282)" fill="#e56a6a"/>
    <circle id="Ellipse_21" data-name="Ellipse 21" cx="28.912" cy="28.912" r="28.912" transform="translate(632.649 464.559)" fill="#2f2e41"/>
    <path id="Tracé_103" data-name="Tracé 103" d="M537.148,466.249l20.033,3.339L567.2,498.524l-28.936,17.808-33.389-50.083h32.275Z" transform="translate(-6.835 -6.312)" fill="#a0616a"/>
    <circle id="Ellipse_22" data-name="Ellipse 22" cx="46.743" cy="46.743" r="46.743" transform="translate(540.33 410.968)" fill="#a0616a"/>
    <path id="Tracé_104" data-name="Tracé 104" d="M530.025,445.919s-113.519,12.242-133.552,10.016-28.936-4.452-28.936-4.452-13.355,17.807-6.678,25.6a48.162,48.162,0,0,0,13.355,11.129s12.242-3.339,21.146,0,99.051,17.807,114.632,4.452S530.025,445.919,530.025,445.919Z" transform="translate(-201.153 -158.487)" fill="#2f2e41"/>
    <path id="Tracé_105" data-name="Tracé 105" d="M537.979,694.67s-74.567-21.146-87.922-114.632v-8.9S435.3,597.017,430.024,602.3c-6.121,6.121-27.823,61.211-26.71,66.776s0,7.791,0,7.791l-32.275-3.339V663.508s17.25-51.751,18.363-63.994,42.848-97.382,42.848-97.382,15.581-32.275,42.292,0,28.936,54.534,28.936,54.534l34.5,66.776Z" transform="translate(-201.316 -159.053)" fill="#2f2e41"/>
    <path id="Tracé_106" data-name="Tracé 106" d="M370.182,447.858l-35.614-12.242s-33.388-24.485-25.6,0,43.4,77.905,53.421,72.341,22.063-19.377,19.378-21.374S361.279,470.117,370.182,447.858Z" transform="translate(-200.46 -158.2)" fill="#2f2e41"/>
    <path id="Tracé_107" data-name="Tracé 107" d="M374.716,659.259,345.967,673.3s-34.766,5.349-15.378,15.378,72.876,20.726,75.55,11.366,1.613-24.895-1.2-24.482S382.739,677.979,374.716,659.259Z" transform="translate(-200.689 -161.375)" fill="#2f2e41"/>
    <path id="Tracé_108" data-name="Tracé 108" d="M525.545,622.635s-14.468,62.324,10.016,75.68,195.877,15.581,209.232-8.9,6.678-24.485,6.678-24.485l-35.614-40.066,28.936-2.226s0-8.9-10.016-10.016-41.179-12.242-67.889-4.452S624.6,592.586,624.6,592.586Z" transform="translate(-203.35 -160.472)" fill="#575a89"/>
    <path id="Tracé_109" data-name="Tracé 109" d="M307.177,270.993l-18.92,103.5,130.214-15.581,23.371-93.487Z" transform="translate(-3.903 -3.593)" fill="#3f3d56"/>
    <path id="Tracé_110" data-name="Tracé 110" d="M311.172,274.942l-15.581,92.373L414.118,353.4l22.815-84.027Z" transform="translate(-4.002 -3.647)" fill="#fff"/>
    <path id="Tracé_111" data-name="Tracé 111" d="M292.678,377.106l-4.452-1.113L286,380.444,321.615,479.5l3.349-1.28,1.1-6.51Z" transform="translate(-3.872 -5.09)" fill="#b3b3b3"/>
    <path id="Tracé_112" data-name="Tracé 112" d="M288.257,374.665l35.614,103.5,134.665-20.033L418.471,360.2Z" transform="translate(-3.903 -4.876)" fill="#d0cde1"/>
    <path id="Tracé_113" data-name="Tracé 113" d="M306.309,371.327v5.565l99.051-11.129-1.113-5.565Z" transform="translate(-4.147 -4.876)" fill="#3f3d56"/>
    <path id="Tracé_114" data-name="Tracé 114" d="M308.565,382.625l15.581,43.4,101.277-12.242-17.807-41.179Z" transform="translate(-4.177 -5.044)" fill="#3f3d56"/>
    <path id="Tracé_115" data-name="Tracé 115" d="M635.55,598.728l-3.339-8.9s-25.6-44.517-38.953-35.614,27.823,52.308,27.823,52.308h13.355Z" transform="translate(-204.288 -159.937)" fill="#a0616a"/>
    <path id="Tracé_116" data-name="Tracé 116" d="M550.343,605.405,547,592.05s-8.9-41.179,6.678-38.953,20.033,41.179,20.033,41.179l-1.113,8.9Z" transform="translate(-203.664 -159.936)" fill="#a0616a"/>
    <path id="Tracé_117" data-name="Tracé 117" d="M577.072,600.463s-28.936-4.452-30.049,2.226-6.678,106.842,21.146,110.18S734,730.677,719.527,696.176,682.8,666.126,682.8,666.126l-94.6,10.016Z" transform="translate(-203.682 -160.559)" fill="#575a89"/>
    <path id="Tracé_118" data-name="Tracé 118" d="M466.406,458.633l-29.492-20.589-19.477,15.025,24.485,26.71Z" transform="translate(-5.651 -5.93)" fill="#575a89"/>
    <path id="Tracé_119" data-name="Tracé 119" d="M386.976,479.224l4.451,42.292,76.793-4.452-66.777-1.113Z" transform="translate(-5.239 -6.488)" opacity="0.2"/>
    <circle id="Ellipse_23" data-name="Ellipse 23" cx="55.647" cy="55.647" r="55.647" transform="translate(554.5 410.558)" fill="#2f2e41"/>
    <path id="Tracé_120" data-name="Tracé 120" d="M328.309,307.354l69-2.4,6.677-25.421-71.227,2.149Z" transform="translate(-4.445 -3.784)" fill="#e56a6a"/>
    <path id="Tracé_121" data-name="Tracé 121" d="M310.258,322.3l104.615-3.339,1.113-4.452-104.615,3.683Z" transform="translate(-4.2 -4.258)" fill="#e6e6e6"/>
    <path id="Tracé_122" data-name="Tracé 122" d="M308,333.578l104.616-3.339,1.113-4.452L309.114,329.47Z" transform="translate(-4.17 -4.411)" fill="#e6e6e6"/>
    <path id="Tracé_123" data-name="Tracé 123" d="M306.873,342.6l104.615-3.338,1.114-4.452L307.986,338.5Z" transform="translate(-4.155 -4.533)" fill="#e6e6e6"/>
  </g>
</svg>
